<?xml version="1.0" encoding="utf-8"?>
<!-- Generator: Adobe Illustrator 26.0.3, SVG Export Plug-In . SVG Version: 6.00 Build 0)  -->
<svg version="1.1" xmlns="http://www.w3.org/2000/svg" x="0px" y="0px"
     viewBox="0 0 500 500" enable-background="new 0 0 500 500" xml:space="preserve">
<g id="Layer_1" display="none">
	<g display="inline">
		<circle fill="#FFFFFF" cx="250.16" cy="250.14" r="250"/>
		<path fill="#DD0000" d="M459.71,299.39c0-17.67-25.62-37.3-32.33-48.49s-10.3-19.85-14.09-28.19c-5.16-11.34-9.93-17-13.21-18.79
			c-2.1-9.64-4.9-18.82-8.27-27.6c-10.55,3.76-23.14,3.82-33.22,0.58c9.47-3.04,19.32-7.89,28.02-12.81
			c-6.86-14.63-15.45-27.91-25.43-39.79c-8.66,6.92-20.81,10.7-31.38,10.37c8.13-5.45,16.13-12.81,22.89-19.79
			c-12.84-13.31-27.51-24.62-43.47-33.79c-6.09,8.73-16.5,15.4-26.43,17.71c6.03-6.87,11.48-15.43,15.91-23.35
			c-16.14-8.09-33.36-14.14-51.11-18.06c-3.49,9.88-12.18,18.81-21.34,23.14c4.3-7.72,7.68-16.97,10.19-25.31
			c-18.74-3.16-37.92-3.98-56.91-2.38c-1.91,9.51-8.56,18.84-16.28,24.11c2.61-7.15,4.31-15.38,5.42-22.94
			c-16.25,2.18-32.27,6.19-47.65,12.05c0.2,8.71-3.34,18.13-8.68,24.53c0.49-6.64,0.04-13.92-0.77-20.66
			c-33.4,14.68-63.28,38.55-85.23,72.28c93.29-81.93,256.82-50.21,313.7,58.76c-3.71,2.58-7.37,6.21-9.53,8.79
			c1.02,0.85,1.96,1.68,2.85,2.51c0.64,0.45,1.11,0.83,1.01,0.95v0c9.72,9.55,10.27,17.08,10.27,17.08l-16.78-8.92
			c-0.01,0.01-0.02,0.03-0.03,0.04l-29.67-15.83l-8.15-4.33c-1.87,16.7,8.77,33.17,24.47,38.3
			c-22.87,33.06-37.54,63.43-50.88,106.04c-0.02-0.02-0.05-0.05-0.05-0.07c-21.76,67.34-76.52,93.63-134.94,123.08
			c35.99,20.07,77.43,31.55,121.57,31.55c63.89,0,122.15-24,166.34-63.43c-2.43-17.3-8.99-34.21-17.26-48.89
			c-10.77-19.14-12.09-37.26-9.3-59.03c-9.42-6.41-38.05-20.31-41.31-28.83c6.89,7.14,51.41,17.45,51.41,17.45
			c-0.49,3.79-0.42,7.82,0.32,11.55c0.08,0.38,0.21,1.13,0.38,1.8c4.52,13.2,9.28,20.22,18.49,25.02
			c-5.51-11.4,1.13-31.07,7.42-34.28C439.83,327.9,458.17,313.68,459.71,299.39z M386.23,251.05c-1.99-0.31-3.79-1.38-5.02-2.98
			l-5.98-7.82l13.44,0.9c3.44,0.23,6.33,2.68,7.12,6.04l1.31,5.56L386.23,251.05z"/>
	</g>
</g>
<g id="Layer_2" display="none">
	<rect x="0.16" y="0.14" display="inline" fill="#FFFFFF" width="499.86" height="499.86"/>
	<path display="inline" fill="#DD0000" d="M400.29,203.73c-2.13-9.68-4.94-18.77-8.23-27.58c-10.55,3.68-22.64,3.87-33.19,0.58
		c9.68-3.1,19.35-7.94,27.97-12.77c-6.87-14.61-15.48-27.87-25.45-39.77c-8.81,6.77-20.22,10.64-31.35,10.35
		c8.32-5.61,15.97-12.77,22.84-19.74c-12.77-13.35-27.68-24.39-43.45-33.77c-6.1,8.71-16.06,15.19-26.42,17.71
		c6-6.87,11.52-15.39,15.87-23.32c-16.16-8.13-33.38-14.13-51.09-18.1c-3.58,9.97-11.9,18.48-21.29,23.13
		c4.35-7.74,7.55-16.84,10.16-25.26c-18.77-3.1-37.93-3.97-56.9-2.42c-1.94,9.48-8.52,18.87-16.26,24.1
		c2.61-7.16,4.26-15.39,5.42-22.93c-16.26,2.32-32.22,6.19-47.61,12c0.19,8.71-3.39,18.1-8.71,24.48c0.48-6.68,0-13.93-0.77-20.61
		c-33.77,14.61-64.64,40.26-85.16,72.29c92.61-81.77,257.02-50.13,313.53,58.74c-3.39,2.32-7.06,5.9-9.48,8.81
		c1.16,1.16,2.9,2.32,3.87,3.48c6,6,9.48,12,10.26,17.03l-16.74-8.9c-6-3.19-32.32-17.22-37.84-20.13
		c-1.94,16.45,8.71,33.19,24.48,38.32c-22.84,33.09-37.55,63.38-50.9,105.96c0,0,0-0.1-0.1-0.1
		c-21.68,67.54-78.09,94.35-135.19,123.19C109.55,478.57,89.5,489.19,69.11,500h324.17c10.22-31.59,15.38-65.89,6.23-112.41
		c-4.94-21.39-12.1-37.26-9.29-59.03c-8.9-6.77-33.29-16.35-41.32-28.84c9.1,8.03,50.71,17.13,51.38,17.42
		c-1.65,15.19,6.1,31.55,19.16,38.32c-4.35-10.35-1.65-27.1,7.45-34.26c13.64,6.29,31.16-7.65,33-22.06
		c-0.87-18.77-22.35-33.38-32.32-48.48C417.32,235.85,413.74,214.28,400.29,203.73z M386.45,250.85
		c-4.45-0.19-8.42-7.94-11.03-10.84l6.68,0.48c3.1,0.39,8.9-0.1,11.23,2.32c2.71,1.84,3.1,6.87,3.87,9.77L386.45,250.85z"/>
</g>
<g id="Layer_2_copy">
	<circle fill="#FFFFFF" cx="250.16" cy="250.14" r="250"/>
	<path fill="#DD0000" d="M459.9,299.14c-0.87-18.77-22.35-33.38-32.32-48.48c-10.26-14.81-13.84-36.38-27.29-46.93
		c-2.13-9.68-4.94-18.77-8.23-27.58c-10.55,3.68-22.64,3.87-33.19,0.58c9.68-3.1,19.35-7.94,27.97-12.77
		c-6.87-14.61-15.48-27.87-25.45-39.77c-8.81,6.77-20.22,10.64-31.35,10.35c8.32-5.61,15.97-12.77,22.84-19.74
		c-12.77-13.35-27.68-24.39-43.45-33.77c-6.1,8.71-16.06,15.19-26.42,17.71c6-6.87,11.52-15.39,15.87-23.32
		c-16.16-8.13-33.38-14.13-51.09-18.1c-3.58,9.97-11.9,18.48-21.29,23.13c4.35-7.74,7.55-16.84,10.16-25.26
		c-18.77-3.1-37.93-3.97-56.9-2.42c-1.94,9.48-8.52,18.87-16.26,24.1c2.61-7.16,4.26-15.39,5.42-22.93
		c-16.26,2.32-32.22,6.19-47.61,12c0.19,8.71-3.39,18.1-8.71,24.48c0.48-6.68,0-13.93-0.77-20.61
		c-33.77,14.61-64.64,40.26-85.16,72.29c92.61-81.77,257.02-50.13,313.53,58.74c-3.39,2.32-7.06,5.9-9.48,8.81
		c1.16,1.16,2.9,2.32,3.87,3.48c6,6,9.48,12,10.26,17.03l-16.74-8.9c-6-3.19-32.32-17.22-37.84-20.13
		c-1.94,16.45,8.71,33.19,24.48,38.32c-22.84,33.09-37.55,63.38-50.9,105.96c0,0,0-0.1-0.1-0.1
		c-21.68,67.54-78.09,94.35-135.19,123.19c-0.04,0.02-0.07,0.04-0.11,0.06c36.02,20.12,77.52,31.6,121.71,31.6
		c57.93,0,111.25-19.71,153.63-52.78c1.2-17.8,0.12-37.37-4.28-59.78c-4.94-21.39-12.1-37.26-9.29-59.03
		c-8.9-6.77-33.29-16.35-41.32-28.84c9.1,8.03,50.71,17.13,51.38,17.42c-1.65,15.19,6.1,31.55,19.16,38.32
		c-4.35-10.35-1.65-27.1,7.45-34.26C440.55,327.49,458.06,313.56,459.9,299.14z M386.45,250.85c-4.45-0.19-8.42-7.94-11.03-10.84
		l6.68,0.48c3.1,0.39,8.9-0.1,11.23,2.32c2.71,1.84,3.1,6.87,3.87,9.77L386.45,250.85z"/>
</g>
</svg>
