<?xml version="1.0" encoding="UTF-8"?>
<svg width="48px" height="48px" viewBox="0 0 48 48" version="1.1" xmlns="http://www.w3.org/2000/svg">
    <title>DF071C50-95EB-44E8-840B-576FD96E03B5</title>
    <g id="Page-1" stroke="none" stroke-width="1" fill="none" fill-rule="evenodd">
        <g id="BandWebsite_Desktop_UI_Home" transform="translate(-536.000000, -4567.000000)" fill-rule="nonzero">
            <g id="Logo2" transform="translate(536.000000, 4567.000000)">
                <path d="M23.8023529,47.7788235 L23.8023529,47.7788235 C10.7011765,47.7788235 0.08,37.1576471 0.08,24.0564706 L0.08,24.0564706 C0.08,10.9552941 10.7011765,0.334117647 23.8023529,0.334117647 L23.8023529,0.334117647 C36.9035294,0.334117647 47.5247059,10.9552941 47.5247059,24.0564706 L47.5247059,24.0564706 C47.52,37.1576471 36.8988235,47.7788235 23.8023529,47.7788235 Z" id="Path" fill="#4520E6"></path>
                <path d="M31.7035294,19.7505882 C31.7035294,18.0705882 30.88,16.5835294 29.6141176,15.6705882 L33.0305882,12.2541176 L30.9882353,12.2635294 L28.2729412,14.9788235 C27.7694118,14.8094118 27.2329412,14.72 26.6729412,14.72 L17.3270588,14.72 L17.3270588,27.9576471 L28.5788235,16.7058824 C29.5905882,17.3411765 30.2682353,18.4705882 30.2682353,19.7552941 C30.2682353,21.7364706 28.6541176,23.3505882 26.6729412,23.3505882 L26.3764706,23.3505882 L13.8541176,35.8729412 L15.8870588,35.8729412 L18.3435294,33.4164706 L26.6729412,33.4164706 C29.4494118,33.4164706 31.7035294,31.1576471 31.7035294,28.3858824 C31.7035294,26.5552941 30.72,24.9552941 29.2564706,24.0752941 C30.72,23.1858824 31.7035294,21.5811765 31.7035294,19.7505882 Z M18.7623529,24.4847059 L18.7623529,16.1552941 L26.6729412,16.1552941 C26.8094118,16.1552941 26.9411765,16.1647059 27.0729412,16.1788235 L18.7623529,24.4847059 Z M30.2682353,28.3764706 C30.2682353,30.3576471 28.6541176,31.9717647 26.6729412,31.9717647 L19.7788235,31.9717647 L26.9411765,24.8094118 C28.7952941,24.9505882 30.2682353,26.4894118 30.2682353,28.3764706 Z" id="Shape" fill="#FFFFFF"></path>
            </g>
        </g>
    </g>
</svg>
