<?xml version="1.0" encoding="UTF-8" standalone="no" ?>
<!DOCTYPE svg PUBLIC "-//W3C//DTD SVG 1.1//EN" "http://www.w3.org/Graphics/SVG/1.1/DTD/svg11.dtd">
<svg xmlns="http://www.w3.org/2000/svg" version="1.1" width="1080" height="1080" viewBox="0 0 1080 1080" xml:space="preserve">
<desc>Created with Fabric.js 5.2.4</desc>
<defs>
</defs>
<rect x="0" y="0" width="100%" height="100%" fill="transparent"></rect>
<g transform="matrix(0 0 0 0 0 0)" id="54277dc7-3fd1-4846-a568-3eedca66ec3c"  >
</g>
<g transform="matrix(1 0 0 1 540 540)" id="9c3e8cfc-6547-42ed-a114-d29d522251a9"  >
<rect style="stroke: none; stroke-width: 1; stroke-dasharray: none; stroke-linecap: butt; stroke-dashoffset: 0; stroke-linejoin: miter; stroke-miterlimit: 4; fill: rgb(255,255,255); fill-rule: nonzero; opacity: 1; visibility: hidden;" vector-effect="non-scaling-stroke"  x="-540" y="-540" rx="0" ry="0" width="1080" height="1080" />
</g>
<g transform="matrix(7.19 0 0 7.19 540.29 540.46)"  >
<path style="stroke: none; stroke-width: 1; stroke-dasharray: none; stroke-linecap: butt; stroke-dashoffset: 0; stroke-linejoin: miter; stroke-miterlimit: 4; fill: rgb(221,0,0); fill-rule: nonzero; opacity: 1;" vector-effect="non-scaling-stroke"  transform=" translate(-27.35, -41.39)" d="M 53.99 26.2 C 53.9 24.259999999999998 51.68 22.75 50.650000000000006 21.189999999999998 C 49.59 19.659999999999997 49.220000000000006 17.43 47.830000000000005 16.339999999999996 C 47.61000000000001 15.339999999999996 47.32000000000001 14.399999999999997 46.980000000000004 13.489999999999997 C 45.89 13.869999999999997 44.64 13.889999999999997 43.550000000000004 13.549999999999997 C 44.550000000000004 13.229999999999997 45.550000000000004 12.729999999999997 46.440000000000005 12.229999999999997 C 45.730000000000004 10.719999999999997 44.84 9.349999999999998 43.81 8.119999999999997 L 43.81 8.119999999999997 L 43.81 8.119999999999997 C 42.900000000000006 8.819999999999997 41.72 9.219999999999997 40.57 9.189999999999998 C 41.43 8.609999999999998 42.22 7.869999999999997 42.93 7.149999999999998 C 41.61 5.769999999999998 40.07 4.629999999999997 38.44 3.6599999999999975 L 38.44 3.6599999999999975 L 38.44 3.6599999999999975 C 37.809999999999995 4.559999999999998 36.78 5.229999999999998 35.71 5.4899999999999975 C 36.33 4.779999999999998 36.9 3.8999999999999977 37.35 3.0799999999999974 C 35.68 2.2399999999999975 33.9 1.6199999999999974 32.07 1.2099999999999973 L 32.07 1.2099999999999973 L 32.07 1.2099999999999973 C 31.7 2.2399999999999975 30.84 3.1199999999999974 29.87 3.5999999999999974 C 30.32 2.799999999999997 30.650000000000002 1.8599999999999974 30.92 0.9899999999999975 L 30.92 0.9899999999999975 L 30.92 0.9899999999999975 C 28.98 0.67 27 0.58 25.04 0.74 C 24.84 1.72 24.16 2.69 23.36 3.2300000000000004 C 23.63 2.49 23.8 1.6400000000000003 23.919999999999998 0.8600000000000003 L 23.919999999999998 0.8600000000000003 C 22.24 1.1 20.59 1.5 19 2.1 L 19 2.1 L 19 2.1 C 19.02 3 18.65 3.97 18.1 4.63 C 18.150000000000002 3.94 18.1 3.19 18.020000000000003 2.5 C 14.530000000000003 4.01 11.340000000000003 6.66 9.220000000000002 9.969999999999999 C 18.790000000000003 1.5199999999999996 35.78 4.789999999999999 41.620000000000005 16.04 C 41.27 16.279999999999998 40.89000000000001 16.65 40.64000000000001 16.95 C 40.760000000000005 17.07 40.940000000000005 17.189999999999998 41.040000000000006 17.31 L 41.040000000000006 17.31 C 41.660000000000004 17.93 42.02 18.549999999999997 42.10000000000001 19.07 L 40.37000000000001 18.15 L 40.37000000000001 18.15 C 39.750000000000014 17.82 37.030000000000015 16.369999999999997 36.46000000000001 16.07 L 36.46000000000001 16.07 L 36.46000000000001 16.07 C 36.260000000000005 17.77 37.36000000000001 19.5 38.99000000000001 20.03 C 36.63000000000001 23.450000000000003 35.11000000000001 26.580000000000002 33.73000000000001 30.98 C 33.73000000000001 30.98 33.73000000000001 30.97 33.72000000000001 30.97 C 31.48000000000001 37.95 25.650000000000013 40.72 19.750000000000014 43.7 C 14.150000000000015 46.67 7.690000000000014 50.09 1.970000000000013 53.120000000000005 C 3.800000000000013 55.120000000000005 6.960000000000013 55.760000000000005 9.430000000000014 54.64000000000001 C 9.19 66.19 -1.4 67.64 1.1 71.65 L 1.1 71.65 C 2.59 74.22 3.8200000000000003 76.91000000000001 4.78 79.72 C 5.66 80.39 6.42 81.2 7.050000000000001 82.11 L 7.050000000000001 82.11 C 8.020000000000001 81.83 10.65 81.07 11.65 80.78 C 9.42 76.74 8.370000000000001 82.32000000000001 5.5200000000000005 71.51 C 5.470000000000001 71.54 5.430000000000001 71.58 5.380000000000001 71.62 C 5.420000000000001 71.55000000000001 5.450000000000001 71.49000000000001 5.490000000000001 71.42 C 5.500000000000001 71.45 5.510000000000001 71.48 5.520000000000001 71.51 C 9.100000000000001 68.46000000000001 14.240000000000002 68.5 17.82 65.45 C 18.12 66.24000000000001 17.490000000000002 67.95 18.17 68.60000000000001 L 18.17 68.60000000000001 C 20.290000000000003 70.63000000000001 22.200000000000003 72.85000000000001 23.89 75.26 C 24.69 75.58 25.46 75.99000000000001 26.16 76.5 L 31.13 75.06 C 28.39 71.32000000000001 28.279999999999998 77.26 22.369999999999997 67.29 C 21.759999999999998 66.05000000000001 22.169999999999998 63.400000000000006 22.919999999999998 60.760000000000005 C 29.139999999999997 60.06 34.53 57.760000000000005 39.68 54.45 C 39.67 59.540000000000006 39.26 64.12 37.65 68.87 C 38.449999999999996 70.04 39.42 71.22 39.839999999999996 72.62 L 43.72 71.5 L 43.72 71.5 L 43.72 71.5 C 43.72 70.23 42.339999999999996 69.96 41.629999999999995 69.29 C 41.42999999999999 69.06 41.309999999999995 68.75 41.349999999999994 68.28 C 41.449999999999996 64.94 42.019999999999996 61.58 42.91 58.35 C 42.91 58.35 42.91 58.35 42.91 58.34 C 45.08 50.080000000000005 49.76 45.57000000000001 47.75 35.34 C 47.24 33.13 46.5 31.490000000000002 46.79 29.240000000000002 C 45.87 28.540000000000003 43.35 27.55 42.519999999999996 26.26 C 43.459999999999994 27.09 47.76 28.03 47.83 28.060000000000002 C 47.66 29.630000000000003 48.46 31.32 49.809999999999995 32.02 L 49.809999999999995 32.02 L 49.809999999999995 32.02 C 49.35999999999999 30.950000000000003 49.63999999999999 29.220000000000002 50.58 28.480000000000004 C 51.99 29.13 53.8 27.69 53.99 26.2 z M 46.4 21.21 C 45.94 21.19 45.53 20.39 45.26 20.09 L 45.949999999999996 20.14 C 46.269999999999996 20.18 46.87 20.13 47.10999999999999 20.38 C 47.38999999999999 20.57 47.42999999999999 21.09 47.50999999999999 21.39 L 46.4 21.21 z" stroke-linecap="round" />
</g>
</svg>
