<svg xmlns="http://www.w3.org/2000/svg" viewBox="0 0 115 115" width="35" height="35" ><g transform="translate(57.5 57.5)"><radialGradient id="a" gradientUnits="userSpaceOnUse" gradientTransform="matrix(-151.85 126.65 -152.83 -183.25 -87.56 54.72)" cx="0" cy="0" r="1" fx="0" fy="0"><stop offset="0%" stop-color="#1973c8"/><stop offset="100%" stop-color="#0d25d1"/></radialGradient><path vector-effect="non-scaling-stroke" transform="translate(-57.5 -57.5)" d="M92 0H23C10.297 0 0 10.297 0 23v69c0 12.703 10.297 23 23 23h69c12.703 0 23-10.297 23-23V23c0-12.703-10.297-23-23-23Z" fill="url(#a)"/></g><g transform="translate(57.5 57.5)"><radialGradient id="b" gradientUnits="userSpaceOnUse" gradientTransform="matrix(-123.6 3.64 -2.68 -91.03 -110.36 -53.49)" cx="0" cy="0" r="1" fx="0" fy="0"><stop offset="0%" stop-color="#5ca6eb" stop-opacity=".68"/><stop offset="100%" stop-color="#5ca6eb" stop-opacity=".057"/></radialGradient><path vector-effect="non-scaling-stroke" transform="translate(-57.5 -57.5)" d="M92 0H23C10.297 0 0 10.297 0 23v69c0 12.703 10.297 23 23 23h69c12.703 0 23-10.297 23-23V23c0-12.703-10.297-23-23-23Z" fill="url(#b)"/></g><g transform="translate(57.5 57.5)"><radialGradient id="c" gradientUnits="userSpaceOnUse" gradientTransform="matrix(-32.97 57.25 -85.83 -49.43 -101.39 7.44)" cx="0" cy="0" r="1" fx="0" fy="0"><stop offset="0%" stop-color="#fff" stop-opacity=".2"/><stop offset="99.96%" stop-color="#fff" stop-opacity=".066"/></radialGradient><path vector-effect="non-scaling-stroke" transform="translate(-57.5 -57.5)" d="M92 0H23C10.297 0 0 10.297 0 23v69c0 12.703 10.297 23 23 23h69c12.703 0 23-10.297 23-23V23c0-12.703-10.297-23-23-23Z" fill="url(#c)"/></g><g transform="translate(57.5 57.5)"><linearGradient id="d" gradientUnits="userSpaceOnUse" x1="108.373" y1="67.811" x2="0" y2="0"><stop offset="0%" stop-color="#fff" stop-opacity=".006"/><stop offset="100%" stop-color="#fff" stop-opacity=".03"/></linearGradient><path vector-effect="non-scaling-stroke" transform="translate(-57.5 -57.5)" d="M92 0H23C10.297 0 0 10.297 0 23v69c0 12.703 10.297 23 23 23h69c12.703 0 23-10.297 23-23V23c0-12.703-10.297-23-23-23Z" fill="url(#d)"/></g><path vector-effect="non-scaling-stroke" d="M40.48 97.75V62.1l33.695 35.65H92.92v-.92L54.165 56.235 89.93 17.71v-.46H71.07L40.48 51.29V17.25H25.3v80.5h15.18Z" fill="#fff"/><g transform="translate(57.5 57.5)"><radialGradient id="e" gradientUnits="userSpaceOnUse" gradientTransform="translate(104.5 12.6) scale(197.8)" cx="0" cy="0" r="1" fx="0" fy="0"><stop offset="0%" stop-color="#2f80f2"/><stop offset="99.966%" stop-color="#a942b5"/></radialGradient><path vector-effect="non-scaling-stroke" transform="translate(-57.5 -57.5)" d="M92 0H23C10.297 0 0 10.297 0 23v69c0 12.703 10.297 23 23 23h69c12.703 0 23-10.297 23-23V23c0-12.703-10.297-23-23-23Z" fill="url(#e)"/></g><g transform="translate(57.5 57.5)"><radialGradient id="f" gradientUnits="userSpaceOnUse" gradientTransform="translate(0 2.47) scale(182.97)" cx="0" cy="0" r="1" fx="0" fy="0"><stop offset="0%" stop-color="#45f9de" stop-opacity=".57"/><stop offset="100%" stop-color="#a942b5" stop-opacity="0"/></radialGradient><path vector-effect="non-scaling-stroke" transform="translate(-57.5 -57.5)" d="M92 0H23C10.297 0 0 10.297 0 23v69c0 12.703 10.297 23 23 23h69c12.703 0 23-10.297 23-23V23c0-12.703-10.297-23-23-23Z" fill="url(#f)"/></g><g transform="translate(57.5 57.5)"><radialGradient id="g" gradientUnits="userSpaceOnUse" gradientTransform="translate(115 115) scale(110.45)" cx="0" cy="0" r="1" fx="0" fy="0"><stop offset="0%" stop-color="#e957c5" stop-opacity=".68"/><stop offset="100%" stop-color="#a942b5" stop-opacity="0"/></radialGradient><path vector-effect="non-scaling-stroke" transform="translate(-57.5 -57.5)" d="M92 0H23C10.297 0 0 10.297 0 23v69c0 12.703 10.297 23 23 23h69c12.703 0 23-10.297 23-23V23c0-12.703-10.297-23-23-23Z" fill="url(#g)"/></g><g transform="translate(57.5 57.5)"><radialGradient id="h" gradientUnits="userSpaceOnUse" gradientTransform="matrix(66.3 0 0 66.3 57.5 57.5)" cx="0" cy="0" r="1" fx="0" fy="0"><stop offset="0%" stop-opacity=".015"/><stop offset="100%" stop-color="#101010" stop-opacity=".08"/></radialGradient><path vector-effect="non-scaling-stroke" transform="translate(-57.5 -57.5)" d="M92 0H23C10.297 0 0 10.297 0 23v69c0 12.703 10.297 23 23 23h69c12.703 0 23-10.297 23-23V23c0-12.703-10.297-23-23-23Z" fill="url(#h)"/></g><g transform="translate(57.5 57.5)"><linearGradient id="i" gradientUnits="userSpaceOnUse" x1="108.373" y1="67.811" x2="0" y2="0"><stop offset="0%" stop-color="#fff" stop-opacity=".006"/><stop offset="100%" stop-color="#fff" stop-opacity=".03"/></linearGradient><path vector-effect="non-scaling-stroke" transform="translate(-57.5 -57.5)" d="M92 0H23C10.297 0 0 10.297 0 23v69c0 12.703 10.297 23 23 23h69c12.703 0 23-10.297 23-23V23c0-12.703-10.297-23-23-23Z" fill="url(#i)"/></g><path vector-effect="non-scaling-stroke" d="M40.48 97.75V62.1l33.695 35.65H92.92v-.92L54.165 56.235 89.93 17.71v-.46H71.07L40.48 51.29V17.25H25.3v80.5h15.18Z" fill="#fff"/></svg>
