<svg viewBox="4.558 14.344 15.123 14.233" fill="none" xmlns="http://www.w3.org/2000/svg" xmlns:xlink="http://www.w3.org/1999/xlink"><defs><linearGradient id="A" x1="17.5" x2="129.5" y1="2" y2="257" xlink:href="#b"><stop stop-color="#80be96"/><stop offset="1" stop-color="#1c6435"/></linearGradient><linearGradient id="G" x1="80.3" x2="80.3" y1="64.6" y2="103.4" xlink:href="#b"><stop/><stop offset="1" stop-opacity="0"/></linearGradient><linearGradient id="N" x1="80.4" x2="80.4" y1="80.4" y2="87.4" xlink:href="#b"><stop stop-color="#0d0d0d"/><stop offset="1" stop-color="#6a6a6a"/></linearGradient><linearGradient id="M" x1="215.1" x2="215.1" y1="125.2" y2="202.6" xlink:href="#b"><stop stop-color="#fff"/><stop offset="1" stop-color="#9b9b9b" stop-opacity="0"/></linearGradient><linearGradient id="B" x1="131.3" x2="131.3" y1="98" y2="204.9" xlink:href="#b"><stop stop-color="#4baf74"/><stop offset="1" stop-color="#26824b"/></linearGradient><linearGradient id="C" x1="131.3" x2="131.3" y1="98" y2="204.9" xlink:href="#b"><stop stop-color="#fff"/><stop offset="1" stop-color="#9b9b9b" stop-opacity="0"/></linearGradient><linearGradient id="L" x1="216.3" x2="212.1" y1="120.4" y2="202.4" xlink:href="#b"><stop stop-color="#32da6d"/><stop offset="1" stop-color="#209f4d"/></linearGradient><linearGradient id="K" x1="46.6" x2="46.6" y1="125.2" y2="202.6" xlink:href="#b"><stop stop-color="#fff"/><stop offset="1" stop-color="#9b9b9b" stop-opacity="0"/></linearGradient><linearGradient id="D" x1="134.9" x2="131.4" y1="46.7" y2="174.4" xlink:href="#b"><stop stop-color="#32da6d"/><stop offset="1" stop-color="#209f4d" stop-opacity=".8"/></linearGradient><linearGradient id="E" x1="131.4" x2="131.4" y1="54.1" y2="174.4" xlink:href="#b"><stop stop-color="#fff"/><stop offset="1" stop-color="#9b9b9b" stop-opacity="0"/></linearGradient><linearGradient id="J" x1="48" x2="44.2" y1="120.4" y2="202.5" xlink:href="#b"><stop stop-color="#32da6d"/><stop offset="1" stop-color="#209f4d"/></linearGradient><linearGradient id="F" x1="80.3" x2="80.3" y1="64.6" y2="103.4" xlink:href="#b"><stop stop-color="#fff"/><stop offset="1" stop-color="#c4c4c4"/></linearGradient><linearGradient id="b" gradientUnits="userSpaceOnUse"/><linearGradient id="I" x1="181.6" x2="181.6" y1="64.6" y2="103.4" xlink:href="#b"><stop/><stop offset="1" stop-opacity="0"/></linearGradient><linearGradient id="H" x1="181.6" x2="181.6" y1="64.6" y2="103.4" xlink:href="#b"><stop stop-color="#fff"/><stop offset="1" stop-color="#c4c4c4"/></linearGradient><linearGradient id="O" x1="181.6" x2="181.6" y1="80.4" y2="87.4" xlink:href="#b"><stop stop-color="#0d0d0d"/><stop offset="1" stop-color="#6a6a6a"/></linearGradient><filter id="V" width="62.4" height="63.2" x="150" y="54" class="B" filterUnits="userSpaceOnUse"><feFlood class="C" result="A"/><feColorMatrix in="SourceAlpha" result="B" values="0 0 0 0 0 0 0 0 0 0 0 0 0 0 0 0 0 0 127 0"/><feOffset dy="2"/><feGaussianBlur stdDeviation="6.1"/><feComposite in2="B" operator="out"/><feColorMatrix values="0 0 0 0 0 0 0 0 0 0 0 0 0 0 0 0 0 0 0.25 0"/><feBlend in2="A"/><feBlend in="SourceGraphic"/></filter><filter id="W" width="89.9" height="106.4" x="2" y="111" class="B" filterUnits="userSpaceOnUse"><feFlood class="C"/><feGaussianBlur stdDeviation="7.3"/><feComposite in2="SourceAlpha" operator="in" result="B"/><feColorMatrix in="SourceAlpha" result="C" values="0 0 0 0 0 0 0 0 0 0 0 0 0 0 0 0 0 0 127 0"/><feOffset dy="2"/><feGaussianBlur stdDeviation="3.2"/><feComposite in2="C" operator="out"/><feColorMatrix values="0 0 0 0 0 0 0 0 0 0 0 0 0 0 0 0 0 0 0.25 0"/><feBlend in2="B"/><feBlend in="SourceGraphic"/></filter><filter id="U" width="62.4" height="63.2" x="49" y="54" class="B" filterUnits="userSpaceOnUse"><feFlood class="C" result="A"/><feColorMatrix in="SourceAlpha" result="B" values="0 0 0 0 0 0 0 0 0 0 0 0 0 0 0 0 0 0 127 0"/><feOffset dy="2"/><feGaussianBlur stdDeviation="6.1"/><feComposite in2="B" operator="out"/><feColorMatrix values="0 0 0 0 0 0 0 0 0 0 0 0 0 0 0 0 0 0 0.25 0"/><feBlend in2="A"/><feBlend in="SourceGraphic"/></filter><filter id="T" width="188.4" height="149.4" x="37" y="40" class="B" filterUnits="userSpaceOnUse"><feFlood class="C"/><feGaussianBlur stdDeviation="7.3"/><feComposite in2="SourceAlpha" operator="in" result="B"/><feColorMatrix in="SourceAlpha" result="C" values="0 0 0 0 0 0 0 0 0 0 0 0 0 0 0 0 0 0 127 0"/><feOffset dy="2"/><feGaussianBlur stdDeviation="3.2"/><feComposite in2="C" operator="out"/><feColorMatrix values="0 0 0 0 0 0 0 0 0 0 0 0 0 0 0 0 0 0 0.25 0"/><feBlend in2="B"/><feBlend in="SourceGraphic" result="E"/><feColorMatrix in="SourceAlpha" result="C" values="0 0 0 0 0 0 0 0 0 0 0 0 0 0 0 0 0 0 127 0"/><feOffset dy="3"/><feGaussianBlur stdDeviation="5.2"/><feComposite in2="C" k2="-1" k3="1" operator="arithmetic"/><feColorMatrix values="0 0 0 0 0 0 0 0 0 0 0 0 0 0 0 0 0 0 0.25 0"/><feBlend in2="E"/></filter><filter id="X" width="84" height="106.4" x="173" y="111" class="B" filterUnits="userSpaceOnUse"><feFlood class="C"/><feGaussianBlur stdDeviation="7.3"/><feComposite in2="SourceAlpha" operator="in" result="B"/><feColorMatrix in="SourceAlpha" result="C" values="0 0 0 0 0 0 0 0 0 0 0 0 0 0 0 0 0 0 127 0"/><feOffset dy="2"/><feGaussianBlur stdDeviation="3.2"/><feComposite in2="C" operator="out"/><feColorMatrix values="0 0 0 0 0 0 0 0 0 0 0 0 0 0 0 0 0 0 0.25 0"/><feBlend in2="B"/><feBlend in="SourceGraphic"/></filter><filter id="S" width="195.7" height="156.7" x="34" y="48" class="B" filterUnits="userSpaceOnUse"><feFlood class="C" result="A"/><feColorMatrix in="SourceAlpha" result="B" values="0 0 0 0 0 0 0 0 0 0 0 0 0 0 0 0 0 0 127 0"/><feOffset dy="12"/><feGaussianBlur stdDeviation="9.1"/><feComposite in2="B" operator="out"/><feColorMatrix values="0 0 0 0 0 0 0 0 0 0 0 0 0 0 0 0 0 0 0.25 0"/><feBlend in2="A"/><feBlend in="SourceGraphic"/></filter><filter id="R" width="190.7" height="119.8" x="36" y="93" class="B" filterUnits="userSpaceOnUse"><feFlood class="C" result="A"/><feColorMatrix in="SourceAlpha" result="B" values="0 0 0 0 0 0 0 0 0 0 0 0 0 0 0 0 0 0 127 0"/><feOffset dy="2"/><feGaussianBlur stdDeviation="3.2"/><feComposite in2="B" operator="out"/><feColorMatrix values="0 0 0 0 0 0 0 0 0 0 0 0 0 0 0 0 0 0 0.25 0"/><feBlend in2="A"/><feBlend in="SourceGraphic"/></filter><filter id="Q" width="262.7" height="187.3" x="-2" y="48" class="B" filterUnits="userSpaceOnUse"><feFlood class="C" result="A"/><feColorMatrix in="SourceAlpha" result="B" values="0 0 0 0 0 0 0 0 0 0 0 0 0 0 0 0 0 0 127 0"/><feOffset dy="12"/><feGaussianBlur stdDeviation="9.1"/><feComposite in2="B" operator="out"/><feColorMatrix values="0 0 0 0 0 0 0 0 0 0 0 0 0 0 0 0 0 0 0.25 0"/><feBlend in2="A"/><feBlend in="SourceGraphic"/></filter><clipPath id="Y"><rect width="255" height="255" x="2" y="2" fill="#fff" rx="44.8"/></clipPath><style>.B{color-interpolation-filters:sRGB}.C{flood-opacity:0}.D{stroke-width:1.541}.E{stroke-width:.691}</style></defs><g clip-path="url(#Y)" transform="translate(4.254 13.743) scale(.05925)"><rect width="255" height="255" x="2" y="2" fill="url(#A)" rx="44.8"/><g filter="url(#Q)"><g filter="url(#R)"><path fill="url(#B)" d="M220 158c0 33-39 47-88 47s-90-14-90-47 40-60 89-60 89 27 89 60z"/><path stroke="url(#C)" d="M219 158c0 16-9 28-25 35-16 8-38 11-62 11-25 0-47-3-63-11-16-7-26-19-26-35s10-31 26-42 38-17 62-17c25 0 47 6 63 17s25 26 25 42z" class="D"/></g><g filter="url(#S)"><g filter="url(#T)" shape-rendering="crispEdges"><path fill="url(#D)" d="M211 86a31 31 0 0 0-55-20 112 112 0 0 0-25-3l-24 3c-6-7-15-12-24-12-17 0-31 14-31 32a32 32 0 0 0 4 15c-3 6-4 12-4 18 0 30 36 55 79 55s80-25 80-55c0-6-1-12-4-18a32 32 0 0 0 4-15z"/><path stroke="url(#E)" stroke-width=".9" d="M156 66a31 31 0 0 1 54 20c1 5-1 11-3 15v1c2 5 3 11 3 17 0 15-8 29-23 39a98 98 0 0 1-56 16c-21 0-41-6-55-16-15-10-24-24-24-39 0-6 2-12 4-17v-1a32 32 0 0 1-4-15c0-17 14-31 31-31 9 0 18 4 23 11h1a108 108 0 0 1 49 0z"/></g><g filter="url(#U)"><path fill="url(#F)" d="M80 103c11 0 19-8 19-19s-8-19-19-19-19 8-19 19 9 19 19 19z"/><path stroke="url(#G)" d="M99 84c0 11-8 19-19 19-10 0-18-8-18-19 0-10 8-19 18-19 11 0 19 9 19 19z" class="E"/></g><g filter="url(#V)"><path fill="url(#H)" d="M182 103c10 0 19-8 19-19s-9-19-19-19-19 8-19 19 8 19 19 19z"/><path stroke="url(#I)" d="M200 84c0 11-8 19-18 19s-19-8-19-19c0-10 8-19 19-19s18 9 18 19z" class="E"/></g></g><g filter="url(#W)"><path d="M70 203c4 0 7-4 7-8-2-15-9-46-40-65-41-25-8 61-8 61l-9 5c-3 2-2 7 2 7h48z" fill="#32da6d"/><path d="M70 203c4 0 7-4 7-8-2-15-9-46-40-65-41-25-8 61-8 61l-9 5c-3 2-2 7 2 7h48z" fill="url(#J)"/><path stroke="url(#K)" d="M29 191v-1l-1-3a299 299 0 0 1-3-9 206 206 0 0 1-8-40l2-9c1-2 3-3 6-3s7 1 12 4c31 19 38 50 39 65 1 4-2 7-6 7H22c-3 0-4-4-2-5l9-5v-1z" class="D"/></g><g filter="url(#X)"><path d="M194 203c-4 0-7-4-6-8 1-15 8-46 36-65 37-25 7 61 7 61l8 5c3 2 2 7-1 7h-44z" fill="#32da6d"/><path d="M194 203c-4 0-7-4-6-8 1-15 8-46 36-65 37-25 7 61 7 61l8 5c3 2 2 7-1 7h-44z" fill="url(#L)"/><path stroke="url(#M)" d="M231 191v1l8 5 1 3-2 2h-44c-3 0-6-3-6-7 2-15 8-46 36-65 5-3 8-4 11-4l3 1 2 2 2 9-1 13-6 27a320 320 0 0 1-3 10 256 256 0 0 1-1 3z" class="D"/></g><path fill="url(#N)" d="M80 87c2 0 4-1 4-3s-2-4-4-4-3 2-3 4 1 3 3 3z"/><path fill="url(#O)" d="M182 87c1 0 3-1 3-3s-2-4-3-4-4 2-4 4 2 3 4 3z"/></g></g></svg>
