<?xml version="1.0" encoding="utf-8"?>
<svg width="25px" height="25px" viewBox="0 0 48 48" fill="none" xmlns="http://www.w3.org/2000/svg">
  <g clip-path="url(#clip0_171_596)" style="" transform="matrix(1.527439, 0, 0, 1.527439, -12.712115, -12.712115)">
    <circle cx="24" cy="24" r="14" fill="black"/>
    <path d="M28.9631 23.7658C28.9631 24.4471 28.8067 25.0725 28.494 25.6421C28.1812 26.2006 27.701 26.6529 27.0532 26.9992C26.4054 27.3454 25.6012 27.5185 24.6407 27.5185H22.8648V31.7404H20V19.9795H24.6407C25.5789 19.9795 26.3719 20.1414 27.0197 20.4653C27.6675 20.7892 28.1533 21.236 28.4772 21.8056C28.8011 22.3753 28.9631 23.0286 28.9631 23.7658ZM24.4229 25.2401C24.9702 25.2401 25.3779 25.1116 25.6459 24.8547C25.9139 24.5979 26.048 24.2349 26.048 23.7658C26.048 23.2967 25.9139 22.9337 25.6459 22.6768C25.3779 22.4199 24.9702 22.2915 24.4229 22.2915H22.8648V25.2401H24.4229Z" fill="white"/>
    <path d="M28.9631 17H20V18.8927H28.9631V17Z" fill="#E50913"/>
  </g>
  <defs>
    <clipPath id="clip0_171_596">
      <rect width="28" height="28" fill="white" transform="translate(10 10)"/>
    </clipPath>
  </defs>
</svg>