<svg width="48" height="48" viewBox="0 0 48 48" fill="none" xmlns="http://www.w3.org/2000/svg">
<circle cx="24" cy="24" r="23.5" stroke="#E2E4E6"/>
<g clip-path="url(#clip0_1315_14918)">
<g opacity="0.25">
<path d="M19.2127 36.9744C19.0828 36.8597 19.0014 36.6997 18.9852 36.527L17.6933 22.7832H22.2909V38.1807C22.2909 38.7679 21.5981 39.0805 21.1578 38.6918L19.2127 36.9744Z" fill="black"/>
<path d="M22.291 22.5089V20.5903L17.448 20.1719L17.6677 22.5089H22.291Z" fill="black"/>
<path d="M22.291 20.317L17.422 19.8963L16.661 11.8003C16.6234 11.4003 16.9381 11.0547 17.3399 11.0547H21.6091C21.9857 11.0547 22.291 11.3599 22.291 11.7365V20.317Z" fill="black"/>
<path d="M31.2771 22.5108H34.7819C34.9701 22.5108 35.1228 22.3581 35.1228 22.1698V20.1593C35.1228 19.9579 34.9492 19.8004 34.7487 19.82L31.4943 20.1378L31.2771 22.5108Z" fill="black"/>
<path d="M31.2179 20.1621L26.3683 20.6357V22.5081H31.0032L31.2179 20.1621Z" fill="black"/>
<path d="M26.0955 20.6636V22.5094H13.1819C12.9936 22.5094 12.841 22.3568 12.841 22.1685V20.1534C12.841 19.9537 13.0119 19.7967 13.2109 19.8138L24.6878 20.7954C24.7085 20.7971 24.7293 20.797 24.75 20.795L26.0955 20.6636Z" fill="black"/>
<path d="M27.5355 38.6441C27.1073 39.0782 26.3683 38.775 26.3683 38.1653V17.0137H31.5127L29.723 36.2071C29.7084 36.3638 29.64 36.5106 29.5295 36.6226L27.5355 38.6441Z" fill="black"/>
<path d="M31.538 16.7422H26.3683V13.8025L31.844 13.4609L31.538 16.7422Z" fill="black"/>
<path d="M26.3683 11.7365V13.5281L31.8695 13.1849L31.9988 11.7998C32.0361 11.4 31.7214 11.0547 31.32 11.0547H27.0501C26.6735 11.0547 26.3683 11.3599 26.3683 11.7365Z" fill="black"/>
<path d="M22.291 16.7413V13.8102L16.822 13.541L17.1212 16.7413H22.291Z" fill="black"/>
<path d="M22.5637 16.7413H36.3501C36.5007 16.7413 36.6228 16.6192 36.6228 16.4686V13.4388C36.6228 13.2813 36.4899 13.1566 36.3328 13.1666L24.4933 13.9186L22.5637 13.8236V16.7413Z" fill="black"/>
<path d="M16.5244 13.5269L16.851 16.7418H11.3274C11.1767 16.7418 11.0546 16.6197 11.0546 16.4691V13.5442C11.0546 13.3883 11.1851 13.2642 11.3408 13.2718L16.5244 13.5269Z" fill="black"/>
</g>
<path d="M19.1581 36.9197C19.0281 36.805 18.9468 36.645 18.9305 36.4724L17.6386 22.7285H22.2363V38.126C22.2363 38.7132 21.5434 39.0257 21.1032 38.6371L19.1581 36.9197Z" fill="url(#paint0_linear_1315_14918)"/>
<path d="M22.2363 22.4542V20.5356L17.3933 20.1172L17.613 22.4542H22.2363Z" fill="url(#paint1_linear_1315_14918)"/>
<path d="M22.2363 20.2623L17.3674 19.8416L16.6064 11.7456C16.5688 11.3456 16.8834 11 17.2852 11H21.5545C21.931 11 22.2363 11.3053 22.2363 11.6818V20.2623Z" fill="url(#paint2_linear_1315_14918)"/>
<path d="M31.2224 22.4541H34.7272C34.9154 22.4541 35.0682 22.3015 35.0682 22.1132V20.1027C35.0682 19.9013 34.8946 19.7438 34.6941 19.7634L31.4396 20.0812L31.2224 22.4541Z" fill="url(#paint3_linear_1315_14918)"/>
<path d="M31.1633 20.1074L26.3136 20.581V22.4534H30.9486L31.1633 20.1074Z" fill="url(#paint4_linear_1315_14918)"/>
<path d="M26.0409 20.6089V22.4547H13.1273C12.939 22.4547 12.7863 22.3021 12.7863 22.1138V20.0988C12.7863 19.899 12.9573 19.7421 13.1563 19.7591L24.6332 20.7407C24.6539 20.7425 24.6747 20.7423 24.6954 20.7403L26.0409 20.6089Z" fill="url(#paint5_linear_1315_14918)"/>
<path d="M27.4808 38.5894C27.0526 39.0235 26.3136 38.7203 26.3136 38.1106V16.959H31.458L29.6683 36.1524C29.6538 36.3092 29.5853 36.456 29.4748 36.568L27.4808 38.5894Z" fill="url(#paint6_linear_1315_14918)"/>
<path d="M31.4834 16.6855H26.3136V13.7459L31.7894 13.4043L31.4834 16.6855Z" fill="url(#paint7_linear_1315_14918)"/>
<path d="M26.3136 11.6818V13.4734L31.8149 13.1303L31.9441 11.7451C31.9814 11.3453 31.6668 11 31.2652 11H26.9954C26.6189 11 26.3136 11.3053 26.3136 11.6818Z" fill="url(#paint8_linear_1315_14918)"/>
<path d="M22.2363 16.6866V13.7555L16.7673 13.4863L17.0666 16.6866H22.2363Z" fill="url(#paint9_linear_1315_14918)"/>
<path d="M22.5091 16.6866H36.2954C36.446 16.6866 36.5681 16.5645 36.5681 16.4139V13.3841C36.5681 13.2266 36.4352 13.1019 36.2782 13.1119L24.4386 13.8639L22.5091 13.769V16.6866Z" fill="url(#paint10_linear_1315_14918)"/>
<path d="M16.4697 13.4722L16.7964 16.6871H11.2727C11.1221 16.6871 11 16.565 11 16.4144V13.4895C11 13.3337 11.1304 13.2095 11.2861 13.2171L16.4697 13.4722Z" fill="url(#paint11_linear_1315_14918)"/>
<path d="M17.6172 19.8632L17.3674 19.8416L17.0708 16.6865H17.0666L16.7673 13.4862L16.77 13.4864L16.6064 11.7456C16.5688 11.3456 16.8834 11 17.2852 11H21.5545C21.813 11 22.038 11.1439 22.1536 11.356C22.0568 11.3033 21.9459 11.2734 21.8279 11.2734H17.5587C17.1569 11.2734 16.8422 11.619 16.8798 12.019L17.0434 13.7597L17.0408 13.7596L17.34 16.9598H17.3442L17.6172 19.8632Z" fill="white"/>
<path d="M22.5098 16.6866H22.7825V14.0423L24.712 14.1373L36.5515 13.3852C36.5572 13.3849 36.5626 13.3847 36.5681 13.3847V13.3841C36.5681 13.2266 36.4352 13.1019 36.2782 13.1119L32.0908 13.3779L32.0884 13.4039L26.587 13.7471V13.7275L24.4386 13.8639L22.5097 13.769L22.5098 16.6866Z" fill="white"/>
<path d="M31.8643 11.3559C31.7678 11.3033 31.657 11.2734 31.5387 11.2734H27.2689C26.8923 11.2734 26.587 11.5786 26.587 11.9552V13.4564L26.3136 13.4734V11.6818C26.3136 11.3053 26.6189 11 26.9954 11H31.2652C31.5255 11 31.7491 11.145 31.8643 11.3559Z" fill="white"/>
<path d="M26.3136 16.959H31.4579L31.4325 17.2317H26.587V38.3833C26.587 38.5046 26.6163 38.6136 26.6665 38.7074C26.4631 38.5962 26.3136 38.3842 26.3136 38.11V22.7271H26.3143V20.8813L26.3136 20.8814V16.959Z" fill="white"/>
<path d="M26.0409 20.909V20.6089L24.6954 20.7403C24.6747 20.7423 24.6539 20.7425 24.6332 20.7407L17.3933 20.1177L17.3937 20.1215L13.1563 19.7591C12.9573 19.7421 12.7863 19.899 12.7863 20.0988V22.1138C12.7863 22.281 12.9066 22.42 13.0654 22.4491C13.0617 22.429 13.0598 22.4083 13.0598 22.3872V20.3721C13.0598 20.1724 13.2307 20.0154 13.4297 20.0324L17.6671 20.3949L17.6668 20.3911L24.9066 21.014C24.9273 21.0158 24.9481 21.0157 24.9688 21.0137L26.0409 20.909Z" fill="white"/>
<path d="M17.6387 22.7285L18.9306 36.4718C18.9468 36.6444 19.0282 36.8045 19.1581 36.9191L19.3131 37.056C19.2524 36.9637 19.2145 36.8571 19.204 36.7451L17.9121 23.0013H22.2363V22.7286L17.6387 22.7285Z" fill="white"/>
<path d="M31.2471 22.4541H31.521L31.713 20.3545L34.9675 20.0367C35.0001 20.0335 35.0319 20.035 35.0626 20.0406C35.0313 19.8701 34.8734 19.7459 34.6941 19.7634L31.466 20.0786L31.3822 20.9781L31.2471 22.4541Z" fill="white"/>
<path d="M16.4963 13.7334L16.4697 13.4722L11.2861 13.2171C11.1304 13.2095 11 13.3337 11 13.4895V16.4144C11 16.565 11.1221 16.6871 11.2727 16.6871H11.2734V13.7629C11.2734 13.607 11.4038 13.4828 11.5595 13.4905L16.4963 13.7334Z" fill="white"/>
</g>
<defs>
<linearGradient id="paint0_linear_1315_14918" x1="11" y1="24.9051" x2="36.5681" y2="24.9051" gradientUnits="userSpaceOnUse">
<stop stop-color="#5433FF"/>
<stop offset="0.5" stop-color="#20BDFF"/>
<stop offset="1" stop-color="#A5FECB"/>
</linearGradient>
<linearGradient id="paint1_linear_1315_14918" x1="11" y1="24.9035" x2="36.5681" y2="24.9035" gradientUnits="userSpaceOnUse">
<stop stop-color="#5433FF"/>
<stop offset="0.5" stop-color="#20BDFF"/>
<stop offset="1" stop-color="#A5FECB"/>
</linearGradient>
<linearGradient id="paint2_linear_1315_14918" x1="11" y1="24.904" x2="36.5681" y2="24.904" gradientUnits="userSpaceOnUse">
<stop stop-color="#5433FF"/>
<stop offset="0.5" stop-color="#20BDFF"/>
<stop offset="1" stop-color="#A5FECB"/>
</linearGradient>
<linearGradient id="paint3_linear_1315_14918" x1="11" y1="24.9035" x2="36.5681" y2="24.9035" gradientUnits="userSpaceOnUse">
<stop stop-color="#5433FF"/>
<stop offset="0.5" stop-color="#20BDFF"/>
<stop offset="1" stop-color="#A5FECB"/>
</linearGradient>
<linearGradient id="paint4_linear_1315_14918" x1="11" y1="24.9028" x2="36.5681" y2="24.9028" gradientUnits="userSpaceOnUse">
<stop stop-color="#5433FF"/>
<stop offset="0.5" stop-color="#20BDFF"/>
<stop offset="1" stop-color="#A5FECB"/>
</linearGradient>
<linearGradient id="paint5_linear_1315_14918" x1="11" y1="24.9041" x2="36.5681" y2="24.9041" gradientUnits="userSpaceOnUse">
<stop stop-color="#5433FF"/>
<stop offset="0.5" stop-color="#20BDFF"/>
<stop offset="1" stop-color="#A5FECB"/>
</linearGradient>
<linearGradient id="paint6_linear_1315_14918" x1="11" y1="24.9038" x2="36.5681" y2="24.9038" gradientUnits="userSpaceOnUse">
<stop stop-color="#5433FF"/>
<stop offset="0.5" stop-color="#20BDFF"/>
<stop offset="1" stop-color="#A5FECB"/>
</linearGradient>
<linearGradient id="paint7_linear_1315_14918" x1="11" y1="24.9031" x2="36.5681" y2="24.9031" gradientUnits="userSpaceOnUse">
<stop stop-color="#5433FF"/>
<stop offset="0.5" stop-color="#20BDFF"/>
<stop offset="1" stop-color="#A5FECB"/>
</linearGradient>
<linearGradient id="paint8_linear_1315_14918" x1="11" y1="24.9039" x2="36.5681" y2="24.9039" gradientUnits="userSpaceOnUse">
<stop stop-color="#5433FF"/>
<stop offset="0.5" stop-color="#20BDFF"/>
<stop offset="1" stop-color="#A5FECB"/>
</linearGradient>
<linearGradient id="paint9_linear_1315_14918" x1="10.9999" y1="24.9041" x2="36.5681" y2="24.9041" gradientUnits="userSpaceOnUse">
<stop stop-color="#5433FF"/>
<stop offset="0.5" stop-color="#20BDFF"/>
<stop offset="1" stop-color="#A5FECB"/>
</linearGradient>
<linearGradient id="paint10_linear_1315_14918" x1="11" y1="24.9042" x2="36.5681" y2="24.9042" gradientUnits="userSpaceOnUse">
<stop stop-color="#5433FF"/>
<stop offset="0.5" stop-color="#20BDFF"/>
<stop offset="1" stop-color="#A5FECB"/>
</linearGradient>
<linearGradient id="paint11_linear_1315_14918" x1="11" y1="24.9047" x2="36.5681" y2="24.9047" gradientUnits="userSpaceOnUse">
<stop stop-color="#5433FF"/>
<stop offset="0.5" stop-color="#20BDFF"/>
<stop offset="1" stop-color="#A5FECB"/>
</linearGradient>
<clipPath id="clip0_1315_14918">
<rect width="25.6805" height="28" fill="white" transform="translate(11 11)"/>
</clipPath>
</defs>
</svg>
