<?xml version="1.0"?>
<svg width="202.67" height="82.78000000000002" xmlns="http://www.w3.org/2000/svg" enable-background="new 0 0 202.67 82.78" version="1.1" xml:space="preserve">
 <g class="layer">
  <title>Layer 1</title>
  <g id="svg_2">
   <polygon fill="#ffffff" id="svg_3" points="82.66,15.72 78.89,15.72 78.92,24.93 75.71,24.93 75.74,15.72 71.97,15.72 71.97,38.49 75.74,38.49 75.71,28.32     78.92,28.32 78.89,38.49 82.66,38.49   "/>
   <rect fill="#ffffff" height="22.77" id="svg_4" width="3.77" x="86.62" y="15.72"/>
   <path d="m99.31,15.33c-1.54,0 -2.81,0.44 -3.68,1.29c-1,0.99 -1.67,2.61 -1.67,7.28l0,6.41c0,4.07 0.47,6.11 1.67,7.28c0.84,0.81 2,1.25 3.26,1.25c1.51,0 2.48,-0.61 3.34,-2.1l0.04,-0.06l0.15,0l0.06,0.07l0.77,1.73l1.56,0l0,-11.82l-5.25,0l0,3.35l1.64,0l0,0.6c0,2.57 0,4.79 -1.83,4.79c-1.67,0 -1.67,-1.89 -1.67,-4.27l0,-8.08c0,-2.39 0,-4.27 1.63,-4.27c1.54,0 1.54,1.61 1.54,4.54l0,0.04l3.81,0c0,-3.58 -0.52,-5.59 -1.73,-6.74c-0.89,-0.86 -2.11,-1.29 -3.64,-1.29z" fill="#ffffff" id="svg_5"/>
   <polygon fill="#ffffff" id="svg_6" points="119.17,15.72 115.4,15.72 115.43,24.93 112.22,24.93 112.25,15.72 108.48,15.72 108.48,38.49 112.25,38.49     112.22,28.32 115.43,28.32 115.4,38.49 119.17,38.49   "/>
   <path d="m132.8,38.89c3.42,0 5.54,-2.24 5.54,-5.83c0,-2.48 -0.98,-4.57 -3.08,-6.58l-1.84,-1.77c-1.33,-1.26 -2.2,-2.2 -2.2,-3.73c0,-1.37 0.59,-2.19 1.57,-2.19c1.32,0 1.66,1.56 1.78,2.79l3.52,-0.3c-0.42,-3.89 -2.24,-5.94 -5.27,-5.94c-3.2,0 -5.35,2.37 -5.35,5.9c0,2.39 0.94,4.4 2.95,6.32l1.84,1.77c1.58,1.5 2.23,2.64 2.23,3.92c0,1.39 -0.65,2.22 -1.73,2.22c-1.19,0 -1.85,-1.03 -2.14,-3.34l-3.49,0.34c0.36,4.14 2.36,6.42 5.67,6.42z" fill="#DD0000" id="svg_7"/>
   <polygon fill="#DD0000" id="svg_8" points="150.34,18.98 150.34,15.72 140,15.72 140,18.98 143.32,18.98 143.29,38.49 147.06,38.49     147.03,18.98   "/>
   <path d="m158.79,33.76l0.58,4.73l3.67,0l-3.37,-22.77l-5.22,0l-3.41,22.77l3.7,0l0.58,-4.73l3.47,0zm-1.89,-13.37l0.35,0l1.12,10.04l-2.66,0l1.19,-10.04z" fill="#DD0000" id="svg_9"/>
   <polygon fill="#DD0000" id="svg_10" points="170.71,28.51 173.2,38.49 177.16,38.49 173.46,24.22 173.47,24.18 176.95,15.71 172.95,15.71     169.71,24.6 169.45,24.6 169.45,15.72 165.68,15.72 165.68,38.49 169.45,38.49 169.45,31.38   "/>
   <polygon fill="#DD0000" id="svg_11" points="187.5,28.28 187.5,24.96 183.51,24.96 183.51,18.98 188.5,18.98 188.5,15.72 179.77,15.72     179.77,38.49 188.6,38.49 188.6,35.26 183.51,35.26 183.51,28.28   "/>
   <path d="m196.52,38.89c3.42,0 5.55,-2.24 5.55,-5.83c0,-2.48 -0.98,-4.57 -3.08,-6.58l-1.84,-1.77c-1.33,-1.26 -2.2,-2.2 -2.2,-3.73c0,-1.37 0.59,-2.19 1.57,-2.19c1.32,0 1.66,1.56 1.78,2.79l3.52,-0.3c-0.42,-3.89 -2.24,-5.94 -5.27,-5.94c-3.2,0 -5.35,2.37 -5.35,5.9c0,2.39 0.94,4.4 2.95,6.32l1.84,1.77c1.58,1.5 2.23,2.64 2.23,3.92c0,1.39 -0.65,2.22 -1.73,2.22c-1.19,0 -1.85,-1.03 -2.14,-3.34l-3.49,0.34c0.35,4.14 2.35,6.42 5.66,6.42z" fill="#DD0000" id="svg_12"/>
  </g>
  <g id="svg_13">
   <path d="m76.7,67.45c3.4,0 5.5,-2.22 5.5,-5.79c0,-2.46 -0.97,-4.54 -3.06,-6.53l-1.82,-1.76c-1.32,-1.27 -2.18,-2.21 -2.18,-3.71c0,-1.36 0.58,-2.17 1.57,-2.17c1.31,0 1.65,1.54 1.77,2.77l3.49,-0.3c-0.42,-3.86 -2.23,-5.9 -5.24,-5.9c-3.23,0 -5.32,2.3 -5.32,5.85c0,2.36 0.93,4.36 2.94,6.28l1.82,1.76c1.58,1.51 2.22,2.64 2.22,3.9c0,1.38 -0.64,2.21 -1.72,2.21c-1.19,0 -1.85,-1.02 -2.13,-3.32l-3.47,0.34c0.35,4.1 2.34,6.37 5.63,6.37z" fill="#ffffff" id="svg_14" transform="matrix(1 0 0 1 0 0)"/>
   <polygon fill="#ffffff" id="svg_15" points="96.59,44.43 95.26,58.74 94.9,58.74 93.17,44.43 90.03,44.43 88.33,58.74 87.97,58.74 86.63,44.43 83.08,44.43     85.92,67.07 89.67,67.07 91.39,53.41 91.75,53.41 93.48,67.07 97.23,67.07 100.08,44.43   "/>
   <rect fill="#ffffff" height="22.65" id="svg_16" width="3.75" x="101.81" y="44.43"/>
   <polygon fill="#ffffff" id="svg_17" points="114.33,47.68 117.59,47.68 117.59,44.43 107.31,44.43 107.31,47.67 110.58,47.67 110.58,67.06 114.33,67.06   "/>
   <polygon fill="#ffffff" id="svg_18" points="118.51,63.88 118.51,67.06 128.47,67.06 128.47,63.86 122.53,63.86 128.5,47.65 128.5,44.43 119.12,44.43     119.12,47.67 124.52,47.67   "/>
   <polygon fill="#ffffff" id="svg_19" points="138.31,56.92 138.31,53.62 134.34,53.62 134.34,47.67 139.3,47.67 139.3,44.43 130.62,44.43 130.62,67.07     139.39,67.07 139.39,63.86 134.33,63.86 134.33,56.92   "/>
   <path d="m148.48,67.06l3.93,0l-2.51,-10.46l0.07,-0.05c1.39,-1.04 2.06,-2.81 2.06,-5.4l0,-0.06c0,-4.54 -1.8,-6.65 -5.67,-6.65l-4.86,-0.02l0,22.65l3.75,0l0,-9.39l1.19,0l2.04,9.38zm-3.24,-12.48l0,-6.98l0.78,0c2.03,0 2.27,1.97 2.27,3.46l0,0.1c0,1.69 -0.28,3.42 -2.33,3.42l-0.72,0z" fill="#ffffff" id="svg_20"/>
   <polygon fill="#ffffff" id="svg_21" points="158.01,44.42 154.26,44.42 154.26,67.06 162.49,67.06 162.49,63.85 158.01,63.85   "/>
   <path d="m170.88,62.36l0.58,4.7l3.65,0l-3.35,-22.64l-5.19,0l-3.38,22.64l3.68,0l0.57,-4.7l3.44,0zm-3.06,-3.3l1.18,-9.97l0.35,0l1.12,9.97l-2.65,0z" fill="#ffffff" id="svg_22"/>
   <polygon fill="#ffffff" id="svg_23" points="184.94,67.07 188.24,67.07 188.24,44.42 184.62,44.42 184.62,56.75 184.43,56.75 180.57,44.42 176.71,44.42     176.71,67.07 180.33,67.07 180.33,53.44 180.52,53.44   "/>
   <path d="m191.15,67.06l5.44,0c1.48,0 2.67,-0.44 3.53,-1.3c1,-1 1.62,-2.41 1.62,-6.31l0,-7.39c0,-3.9 -0.62,-5.31 -1.62,-6.31c-0.87,-0.86 -2.06,-1.3 -3.53,-1.32l-5.44,0l0,22.63zm3.72,-19.45l1.09,0c2.04,0 2.04,2.41 2.04,3.71l0,8.87c0,1.29 0,3.71 -2.04,3.71l-1.09,0l0,-16.29z" fill="#ffffff" id="svg_24"/>
  </g>
  <path d="m53.99,26.2c-0.09,-1.94 -2.31,-3.45 -3.34,-5.01c-1.06,-1.53 -1.43,-3.76 -2.82,-4.85c-0.22,-1 -0.51,-1.94 -0.85,-2.85c-1.09,0.38 -2.34,0.4 -3.43,0.06c1,-0.32 2,-0.82 2.89,-1.32c-0.71,-1.51 -1.6,-2.88 -2.63,-4.11l0,0l0,0c-0.91,0.7 -2.09,1.1 -3.24,1.07c0.86,-0.58 1.65,-1.32 2.36,-2.04c-1.32,-1.38 -2.86,-2.52 -4.49,-3.49l0,0l0,0c-0.63,0.9 -1.66,1.57 -2.73,1.83c0.62,-0.71 1.19,-1.59 1.64,-2.41c-1.67,-0.84 -3.45,-1.46 -5.28,-1.87l0,0l0,0c-0.37,1.03 -1.23,1.91 -2.2,2.39c0.45,-0.8 0.78,-1.74 1.05,-2.61l0,0l0,0c-1.94,-0.32 -3.92,-0.41 -5.88,-0.25c-0.2,0.98 -0.88,1.95 -1.68,2.49c0.27,-0.74 0.44,-1.59 0.56,-2.37l0,0c-1.68,0.24 -3.33,0.64 -4.92,1.24l0,0l0,0c0.02,0.9 -0.35,1.87 -0.9,2.53c0.05,-0.69 0,-1.44 -0.08,-2.13c-3.49,1.51 -6.68,4.16 -8.8,7.47c9.57,-8.45 26.56,-5.18 32.4,6.07c-0.35,0.24 -0.73,0.61 -0.98,0.91c0.12,0.12 0.3,0.24 0.4,0.36l0,0c0.62,0.62 0.98,1.24 1.06,1.76l-1.73,-0.92l0,0c-0.62,-0.33 -3.34,-1.78 -3.91,-2.08l0,0l0,0c-0.2,1.7 0.9,3.43 2.53,3.96c-2.36,3.42 -3.88,6.55 -5.26,10.95c0,0 0,-0.01 -0.01,-0.01c-2.24,6.98 -8.07,9.75 -13.97,12.73c-5.6,2.97 -12.06,6.39 -17.78,9.42c1.83,2 4.99,2.64 7.46,1.52c-0.24,11.55 -10.83,13 -8.33,17.01l0,0c1.49,2.57 2.72,5.26 3.68,8.07c0.88,0.67 1.64,1.48 2.27,2.39l0,0c0.97,-0.28 3.6,-1.04 4.6,-1.33c-2.23,-4.04 -3.28,1.54 -6.13,-9.27c-0.05,0.03 -0.09,0.07 -0.14,0.11c0.04,-0.07 0.07,-0.13 0.11,-0.2c0.01,0.03 0.02,0.06 0.03,0.09c3.58,-3.05 8.72,-3.01 12.3,-6.06c0.3,0.79 -0.33,2.5 0.35,3.15l0,0c2.12,2.03 4.03,4.25 5.72,6.66c0.8,0.32 1.57,0.73 2.27,1.24l4.97,-1.44c-2.74,-3.74 -2.85,2.2 -8.76,-7.77c-0.61,-1.24 -0.2,-3.89 0.55,-6.53c6.22,-0.7 11.61,-3 16.76,-6.31c-0.01,5.09 -0.42,9.67 -2.03,14.42c0.8,1.17 1.77,2.35 2.19,3.75l3.88,-1.12l0,0l0,0c0,-1.27 -1.38,-1.54 -2.09,-2.21c-0.2,-0.23 -0.32,-0.54 -0.28,-1.01c0.1,-3.34 0.67,-6.7 1.56,-9.93c0,0 0,0 0,-0.01c2.17,-8.26 6.85,-12.77 4.84,-23c-0.51,-2.21 -1.25,-3.85 -0.96,-6.1c-0.92,-0.7 -3.44,-1.69 -4.27,-2.98c0.94,0.83 5.24,1.77 5.31,1.8c-0.17,1.57 0.63,3.26 1.98,3.96l0,0l0,0c-0.45,-1.07 -0.17,-2.8 0.77,-3.54c1.41,0.65 3.22,-0.79 3.41,-2.28zm-7.59,-4.99c-0.46,-0.02 -0.87,-0.82 -1.14,-1.12l0.69,0.05c0.32,0.04 0.92,-0.01 1.16,0.24c0.28,0.19 0.32,0.71 0.4,1.01l-1.11,-0.18z" fill="#DD0000" id="svg_25"/>
 </g>
</svg>
