<?xml version="1.0" encoding="utf-8"?>
<!-- Generator: Adobe Illustrator 25.0.1, SVG Export Plug-In . SVG Version: 6.00 Build 0)  -->
<svg version="1.1" id="stellee-sig" xmlns="http://www.w3.org/2000/svg" x="0px"
     y="0px" viewBox="0 0 284.3 67.7" style="enable-background:new 0 0 284.3 67.7;" xml:space="preserve">
<style type="text/css">
	.st0{fill:#50535A;}
	.st1{fill:url(#SVGID_1_);}
	.st2{fill:#E20E18;}
	.st3{fill:#FFFFFF;}
</style>
<g>
	<path class="st0" d="M8.7,14.1c-0.6,0.6-0.9,1.3-0.9,2.1v0.4c0,0.8,0.3,1.5,0.9,2.1c0.6,0.6,1.3,0.9,2.1,0.9h19.5
		c2.2,0,4,0.8,5.5,2.3c1.5,1.5,2.3,3.4,2.3,5.6v6.1c0,2.2-0.8,4-2.3,5.5s-3.4,2.3-5.5,2.3H7.8c-2.2,0-4-0.8-5.6-2.3S0,35.7,0,33.5
		v-1.6h7.8v1.4c0,0.8,0.3,1.5,0.9,2.1c0.6,0.6,1.3,0.8,2.1,0.8h16.5c0.8,0,1.5-0.3,2.1-0.9c0.6-0.6,0.9-1.3,0.9-2.1v-5.7
		c0-0.8-0.3-1.5-0.9-2.1s-1.3-0.9-2.1-0.9H7.8c-2.2,0-4-0.8-5.6-2.3C0.8,20.9,0,19,0,16.8V16c0-2.2,0.8-4,2.3-5.6s3.4-2.3,5.6-2.3
		h25.4v2.1c0,0.8-0.3,1.5-0.8,2.1c-0.6,0.6-1.3,0.9-2.1,0.9H10.8C10,13.3,9.3,13.6,8.7,14.1L8.7,14.1z"/>
	<path class="st0" d="M63.5,37.1c0.6,0.6,0.9,1.3,0.9,2.1v2.2H52.6c-2.2,0-4-0.8-5.5-2.3s-2.3-3.4-2.3-5.5V8.2h7.8v11.4h6.3v5.1
		h-6.3v8.6c0,0.8,0.3,1.5,0.9,2.1c0.6,0.6,1.3,0.9,2.1,0.9h6C62.3,36.3,63,36.5,63.5,37.1L63.5,37.1z"/>
	<path class="st0" d="M76.3,33.3c0,0.8,0.3,1.5,0.8,2.1s1.3,0.9,2.1,0.9h15.6c0.8,0,1.5,0.3,2.1,0.8s0.8,1.3,0.8,2.1v2.2H76.3
		c-2.2,0-4.1-0.8-5.6-2.3s-2.3-3.4-2.3-5.6V22.9c0-2.2,0.8-4.1,2.3-5.6c1.5-1.5,3.4-2.3,5.6-2.3h18.5c2.2,0,4.1,0.8,5.6,2.3
		s2.3,3.4,2.3,5.6v0.4c0,2.2-0.8,4.1-2.3,5.6s-3.4,2.3-5.6,2.3H76.3C76.3,31.1,76.3,33.3,76.3,33.3z M94.8,23.1
		c0-0.8-0.3-1.5-0.8-2.1s-1.3-0.9-2.1-0.9H79.3c-0.8,0-1.5,0.3-2.1,0.9s-0.8,1.3-0.8,2.1v3h15.6c0.8,0,1.5-0.3,2.1-0.9
		S94.9,23.9,94.8,23.1z"/>
	<path class="st0" d="M126.4,39.2v2.2h-11.8c-2.2,0-4-0.8-5.6-2.3s-2.3-3.4-2.3-5.5V8.2h7.8v25.1c0,0.8,0.3,1.5,0.9,2.1
		c0.6,0.6,1.3,0.9,2.1,0.9h5.9c0.8,0,1.5,0.3,2.1,0.8S126.5,38.4,126.4,39.2L126.4,39.2z"/>
	<path class="st0" d="M149.9,39.2v2.2h-11.8c-2.2,0-4-0.8-5.6-2.3s-2.3-3.4-2.3-5.5V8.2h7.9v25.1c0,0.8,0.3,1.5,0.9,2.1
		c0.6,0.6,1.3,0.9,2.1,0.9h5.9c0.8,0,1.5,0.3,2.1,0.8S150,38.4,149.9,39.2L149.9,39.2z"/>
	<path class="st0" d="M161.7,33.3c0,0.8,0.3,1.5,0.9,2.1s1.3,0.9,2.1,0.9h15.6c0.8,0,1.5,0.3,2.1,0.8s0.9,1.3,0.9,2.1v2.2h-21.4
		c-2.2,0-4.1-0.8-5.6-2.3s-2.3-3.4-2.3-5.6V22.9c0-2.2,0.8-4.1,2.3-5.6s3.4-2.3,5.6-2.3h18.5c2.2,0,4.1,0.8,5.6,2.3s2.3,3.4,2.3,5.6
		v0.4c0,2.2-0.8,4.1-2.3,5.6s-3.4,2.3-5.6,2.3h-18.5L161.7,33.3L161.7,33.3z M180.2,23.1c0-0.8-0.3-1.5-0.9-2.1s-1.3-0.9-2.1-0.9
		h-12.6c-0.8,0-1.5,0.3-2.1,0.9s-0.9,1.3-0.9,2.1v3h15.6c0.8,0,1.5-0.3,2.1-0.9S180.2,23.9,180.2,23.1L180.2,23.1z"/>
	<path class="st0" d="M200.1,33.3c0,0.8,0.3,1.5,0.9,2.1s1.3,0.9,2.1,0.9h15.6c0.8,0,1.5,0.3,2.1,0.8s0.9,1.3,0.9,2.1v2.2h-21.4
		c-2.2,0-4.1-0.8-5.6-2.3s-2.3-3.4-2.3-5.6V22.9c0-2.2,0.8-4.1,2.3-5.6s3.4-2.3,5.6-2.3h18.5c2.2,0,4.1,0.8,5.6,2.3s2.3,3.4,2.3,5.6
		v0.4c0,2.2-0.8,4.1-2.3,5.6s-3.4,2.3-5.6,2.3h-18.5L200.1,33.3L200.1,33.3z M218.6,23.1c0-0.8-0.3-1.5-0.9-2.1s-1.3-0.9-2.1-0.9
		H203c-0.8,0-1.5,0.3-2.1,0.9s-0.9,1.3-0.9,2.1v3h15.6c0.8,0,1.5-0.3,2.1-0.9S218.5,23.9,218.6,23.1L218.6,23.1z"/>

		<linearGradient id="SVGID_1_" gradientUnits="userSpaceOnUse" x1="245.55" y1="14.8188" x2="0.98" y2="14.8188" gradientTransform="matrix(1 0 0 -1 0 69)">
		<stop  offset="0" style="stop-color:#E12625"/>
		<stop  offset="0.12" style="stop-color:#E12A29"/>
		<stop  offset="0.25" style="stop-color:#E33837"/>
		<stop  offset="0.4" style="stop-color:#E64F4E"/>
		<stop  offset="0.55" style="stop-color:#EB6F6E"/>
		<stop  offset="0.7" style="stop-color:#F09898"/>
		<stop  offset="0.86" style="stop-color:#F7CACA"/>
		<stop  offset="1" style="stop-color:#FFFFFF"/>
	</linearGradient>
	<path class="st1" d="M245.5,46.5c-9.2,5.9-19.4,9.5-29.5,12.1c-10.2,2.7-20.5,4.3-30.9,5.6c-20.7,2.4-41.4,3.2-62.1,3.4
		c-20.7,0.2-41.5-0.2-62.1-2.9c-10.3-1.4-20.5-3.5-30.4-6.7C20.8,54.8,11.3,50.3,3,44.2c8.6,5.8,18.1,10,28,12.9
		c9.9,2.9,20.1,4.6,30.3,5.7c20.5,2,41.1,1.7,61.7,0.9c20.6-0.8,41.2-2,61.5-4.9c10.1-1.5,20.2-3.4,29.9-6.2
		c9.7-2.8,19.2-6.5,27.3-12L245.5,46.5L245.5,46.5z"/>
	<path class="st2" d="M270.7,30.3l1.3,7.2c0,0-1.7,3.1-4.6,5.8c-2.9,2.7-8.2,4.5-8.2,4.5l-2.1-9.1c0,0,5.3-2.8,6.9-4
		S270.7,30.3,270.7,30.3L270.7,30.3z"/>
	<path class="st2" d="M254.8,15.8l-7.3-0.6c0,0-2.9,2-5.4,5.1c-2.4,3.1-3.8,8.6-3.8,8.6l9.3,1.2c0,0,2.3-5.5,3.3-7.3
		S254.8,15.8,254.8,15.8L254.8,15.8z"/>
	<path class="st2" d="M252.9,37l-2.8,0l-0.2-2.8c0,0-4.8-0.8-7.8,3.4c-2.8,3.8-1.6,8.9-1.4,9.7l-0.1,0.1c0,0,0,0,0.1,0
		c0,0,0,0.1,0,0.1l0.1-0.1c0.9,0.1,6,0.8,9.5-2.3C254.1,41.6,252.9,37,252.9,37z"/>
	<path class="st2" d="M283.3,0.4c0,0-10.7-2.4-18.5,4.2s-16.3,25.8-16.3,25.8l4.1,3.8l4.1,3.8c0,0,18.2-10.2,24.1-18.7
		S283.3,0.4,283.3,0.4L283.3,0.4z"/>
	<g>
		<path class="st3" d="M257.7,20.8c-0.7-0.7-0.6-1.9,0.2-2.7l12.5-12.9c0.8-0.8,2-0.9,2.7-0.3c0.4,0.4,0.5,1,0.4,1.6l-2.3,10.9
			c-0.1,0.6-0.6,1-1.2,1.2l-10.8,2.6C258.7,21.4,258.1,21.2,257.7,20.8L257.7,20.8z"/>
		<path class="st3" d="M280,15.5l-11.6,11.9c-1.1,1.1-2.7,1.2-3.6,0.4l-5.5-5.3l10.8-2.6c1.1-0.3,2.1-1.2,2.3-2.4l2.3-10.9l5.5,5.3
			C281.2,12.8,281.1,14.4,280,15.5L280,15.5z"/>
	</g>
	<path class="st2" d="M43.1,16.7c-7-4.1-9-3.7-14.1,2.5c-0.2,0.2-0.6,0-0.4-0.3c4.1-7,3.7-8.9-2.5-14.1c-0.2-0.2,0-0.6,0.3-0.4
		c6.9,4.1,8.9,3.7,14.1-2.5c0.2-0.2,0.6,0,0.4,0.3c-4.1,6.9-3.7,8.9,2.5,14.1C43.7,16.5,43.4,16.9,43.1,16.7z"/>
</g>
</svg>
